<svg width="1000" height="1000" viewBox="0 0 1000 1000" fill="none" xmlns="http://www.w3.org/2000/svg">
<g clip-path="url(#clip0_4014_52984)">
<path d="M753.403 337.852C762.789 347.226 767.586 357.61 767.707 370.829C767.698 372.698 767.698 372.698 767.688 374.605C767.695 375.95 767.703 377.294 767.71 378.679C767.73 383.174 767.724 387.667 767.718 392.162C767.725 395.388 767.737 398.615 767.748 401.841C767.773 409.689 767.779 417.536 767.777 425.383C767.775 431.763 767.779 438.142 767.788 444.521C767.791 446.361 767.793 448.2 767.796 450.04C767.797 451.413 767.797 451.413 767.799 452.814C767.822 470.118 767.82 487.421 767.812 504.724C767.806 520.547 767.83 536.37 767.869 552.193C767.909 568.451 767.927 584.709 767.921 600.967C767.919 610.091 767.925 619.214 767.954 628.337C767.979 636.103 767.983 643.868 767.961 651.633C767.95 655.593 767.952 659.552 767.973 663.513C767.994 667.81 767.979 672.105 767.955 676.402C767.97 677.648 767.985 678.894 768 680.178C767.894 689.018 765.755 694.707 759.646 701.139C753.559 706.645 747.325 708.1 739.342 707.86C731.489 707.033 726.393 703.864 720.81 698.421C715.618 691.004 714.955 683.657 715.037 674.906C715.033 673.779 715.03 672.653 715.026 671.493C715.018 667.737 715.035 663.981 715.051 660.226C715.05 657.526 715.048 654.826 715.044 652.126C715.038 646.321 715.043 640.517 715.055 634.713C715.075 625.537 715.065 616.362 715.05 607.187C715.031 594.327 715.02 581.468 715.021 568.608C715.021 567.793 715.021 566.978 715.021 566.138C715.021 557.038 715.025 547.937 715.034 538.837C715.034 538.018 715.035 537.199 715.036 536.355C715.037 535.537 715.037 534.719 715.038 533.876C715.04 532.226 715.041 530.576 715.043 528.926C715.043 528.11 715.044 527.295 715.045 526.455C715.057 512.864 715.045 499.273 715.017 485.681C714.999 476.557 715.007 467.433 715.036 458.308C715.048 452.639 715.035 446.97 715.016 441.301C715.012 438.669 715.018 436.036 715.035 433.404C715.056 429.815 715.042 426.229 715.018 422.64C715.033 421.594 715.048 420.548 715.064 419.47C714.991 414.32 714.774 412.197 711.557 407.974C707.389 404.949 705.231 404.891 700.174 405.689C693.655 409.324 689.071 414.387 684.074 419.858C682.406 421.658 680.736 423.457 679.065 425.254C678.253 426.128 677.442 427.001 676.606 427.902C673.529 431.171 670.363 434.328 667.164 437.478C663.009 441.578 659.115 445.779 655.327 450.215C652.553 453.309 649.611 456.22 646.652 459.136C643.012 462.722 639.454 466.328 636.139 470.221C632.023 475.044 627.527 479.44 623.016 483.89C619.043 487.827 615.312 491.887 611.684 496.146C608.192 500.064 604.401 503.685 600.666 507.37C598.242 509.822 595.959 512.314 593.718 514.932C590.547 518.636 587.192 522.078 583.719 525.504C580.271 528.905 576.939 532.319 573.794 536.002C569.906 540.545 565.687 544.72 561.43 548.913C557.576 552.73 553.98 556.681 550.47 560.812C548.195 563.355 545.759 565.663 543.284 568.011C527.746 583.395 520.912 600.594 517.846 621.825C516.463 621.632 515.08 621.438 513.655 621.238C502.689 620.041 491.93 619.574 481.38 623C481.136 621.58 480.892 620.159 480.64 618.696C475.62 591.352 461.515 574.849 442.739 555.18C440.234 552.547 437.745 549.901 435.26 547.248C428.354 539.877 421.45 532.524 414.257 525.43C410.101 521.33 406.207 517.129 402.42 512.692C399.646 509.599 396.704 506.688 393.745 503.772C390.129 500.21 386.593 496.631 383.305 492.76C379.557 488.366 375.501 484.334 371.395 480.279C366.625 475.57 362.055 470.813 357.715 465.702C354.221 461.804 350.472 458.161 346.722 454.51C343.484 451.333 340.427 448.073 337.465 444.636C332.948 439.421 328.09 434.599 323.166 429.769C317.442 424.156 311.908 418.5 306.727 412.379C302.815 408.036 299.447 405.937 293.684 405.028C288.387 405.894 286.999 407.317 283.759 411.562C282.912 415.225 282.977 418.797 283.031 422.543C283.024 423.653 283.016 424.764 283.009 425.908C282.991 429.632 283.016 433.354 283.04 437.077C283.035 439.746 283.029 442.415 283.019 445.083C283.005 450.832 283.009 456.581 283.027 462.329C283.056 471.422 283.043 480.514 283.023 489.606C283 502.357 282.995 515.107 283.007 527.857C283.008 528.666 283.008 529.475 283.009 530.309C283.011 531.946 283.012 533.583 283.014 535.22C283.015 536.437 283.015 536.437 283.016 537.679C283.017 538.491 283.017 539.303 283.018 540.14C283.026 549.151 283.028 558.163 283.029 567.174C283.029 567.981 283.029 568.787 283.029 569.618C283.029 583.082 283.014 596.546 282.992 610.009C282.979 619.045 282.984 628.081 283.004 637.116C283.013 642.743 283.008 648.37 283 653.997C282.999 656.603 283.004 659.209 283.015 661.815C283.031 665.378 283.024 668.941 283.012 672.504C283.022 673.53 283.032 674.556 283.042 675.612C282.967 685.252 280.865 693.938 274.105 701.105C268.058 706.184 261.26 708.361 253.405 707.951C245.68 706.826 239.846 703.787 234.354 698.178C229.29 690.89 228.978 683.992 229.051 675.34C229.044 674.008 229.037 672.676 229.029 671.303C229.01 666.849 229.025 662.396 229.04 657.942C229.036 654.745 229.025 651.547 229.015 648.349C228.994 640.571 228.999 632.794 229.012 625.016C229.023 618.691 229.024 612.366 229.019 606.041C229.018 605.14 229.018 604.239 229.017 603.31C229.015 601.479 229.014 599.648 229.012 597.816C228.999 580.654 229.014 563.492 229.04 546.33C229.061 531.621 229.057 516.913 229.035 502.204C229.01 485.107 229 468.011 229.015 450.914C229.016 449.088 229.018 447.263 229.019 445.438C229.02 444.54 229.021 443.641 229.021 442.716C229.025 436.405 229.019 430.093 229.008 423.782C228.994 416.082 228.998 408.382 229.023 400.681C229.035 396.757 229.038 392.832 229.025 388.908C229.012 384.643 229.028 380.379 229.051 376.114C229.041 374.888 229.03 373.661 229.02 372.397C229.157 359.44 232.979 349.499 242 340.179C253.565 329.875 265.601 327.348 280.644 327.726C299.636 328.819 313.738 340.603 326.107 354.004C327.339 355.417 328.565 356.836 329.783 358.262C333.987 363.171 338.57 367.669 343.163 372.211C348.273 377.264 353.233 382.317 357.867 387.812C362.186 392.597 366.846 397.057 371.429 401.589C375.759 405.887 379.89 410.243 383.824 414.907C387.873 419.407 392.245 423.595 396.55 427.849C400.752 432.018 404.739 436.267 408.563 440.786C411.721 444.301 415.086 447.594 418.447 450.913C426.432 458.797 426.432 458.797 430.063 463.1C434.154 467.924 438.656 472.311 443.15 476.755C448.31 481.859 453.327 486.964 458.01 492.512C461.782 496.721 465.858 500.632 469.882 504.599C473.47 508.153 476.922 511.748 480.204 515.592C484.514 520.629 488.905 525.033 495.496 526.678C503.856 526.818 509.201 524.387 515.334 518.811C517.751 516.475 520.12 514.098 522.478 511.701C523.274 510.905 524.071 510.108 524.892 509.288C528.757 505.395 532.499 501.446 536.083 497.293C541.086 491.508 546.544 486.216 552.005 480.867C556.653 476.279 561.043 471.568 565.307 466.624C568.163 463.389 571.218 460.382 574.309 457.374C578.126 453.613 581.872 449.866 585.337 445.774C589.257 441.165 593.535 436.956 597.835 432.706C604.205 426.428 604.205 426.428 610.186 419.785C614.715 414.432 619.766 409.603 624.749 404.678C629.004 400.456 633.05 396.154 636.925 391.579C640.184 387.922 643.705 384.527 647.194 381.09C650.208 378.105 653.101 375.081 655.842 371.844C660.444 366.446 665.523 361.528 670.591 356.572C673.979 353.238 677.181 349.888 680.191 346.208C683.567 342.213 687.213 339.421 691.646 336.678C692.725 336.001 692.725 336.001 693.825 335.31C699.624 331.788 705.233 329.411 711.938 328.161C713.193 327.896 713.193 327.896 714.474 327.625C728.814 325.264 741.747 329.795 753.403 337.852Z" fill="#101F61"/>
<path d="M537.745 669.086C537.745 690.518 520.386 707.892 498.972 707.892C477.558 707.892 460.199 690.518 460.199 669.086C460.199 647.654 477.558 630.28 498.972 630.28C520.386 630.28 537.745 647.654 537.745 669.086Z" fill="url(#paint0_linear_4014_52984)"/>
<path d="M163.467 251.641C165.817 257.52 168.167 263.4 170.517 269.28C169.731 269.723 168.944 270.166 168.134 270.623C147.724 281.987 147.724 281.987 129.394 296.326C128.002 297.515 128.002 297.515 126.581 298.729C97.3645 323.799 79.6842 360.646 70.6474 397.457C70.4492 398.259 70.251 399.061 70.0467 399.887C66.3907 415.261 65.7741 431.128 64.7727 446.846C63.7246 447.003 62.6765 447.159 61.5967 447.32C59.5339 447.631 59.5339 447.631 57.4293 447.949C56.0662 448.153 54.7031 448.358 53.2987 448.569C49.6471 449.111 49.6471 449.111 46.7264 449.938C45.7722 450.154 45.7722 450.154 44.7988 450.374C42.7028 448.276 43.4202 445.277 43.4035 442.437C43.7342 406.22 51.6975 368.955 69.5017 337.18C70.6684 335.095 71.7908 332.99 72.9101 330.879C80.8007 316.254 90.9828 303.673 102.371 291.622C103.319 290.598 104.267 289.573 105.244 288.517C118.558 274.595 143.123 251.641 163.467 251.641Z" fill="url(#paint1_linear_4014_52984)"/>
<path d="M112.945 502.116C118.104 502.846 122.32 504.818 126.898 507.187C128.104 507.802 128.104 507.802 129.334 508.43C131.122 509.346 132.908 510.266 134.692 511.188C137.8 512.793 140.918 514.379 144.035 515.965C197.72 543.453 197.72 543.453 209.29 555.033C209.392 556.869 209.416 558.71 209.405 560.55C209.399 562.215 209.399 562.215 209.394 563.914C209.379 565.666 209.379 565.666 209.364 567.454C209.358 568.626 209.353 569.799 209.348 571.007C209.334 573.914 209.314 576.821 209.29 579.728C201.099 575.468 193.282 570.797 185.498 565.837C160.343 549.833 134.498 533.923 107.071 522.106C108.181 518.723 109.277 515.39 110.669 512.111C111.91 508.8 112.458 505.61 112.945 502.116Z" fill="url(#paint2_linear_4014_52984)"/>
<path d="M49.4982 545.625C56.0896 546.013 62.681 546.401 69.4722 546.801C69.6721 548.99 69.872 551.179 70.078 553.434C75.0116 605.482 89.3146 652.569 125.869 691.442C126.425 692.041 126.981 692.641 127.553 693.259C150.013 717.35 180.493 733.799 210.465 746.711C209.983 747.492 209.501 748.272 209.005 749.077C208.372 750.115 207.739 751.153 207.087 752.223C206.46 753.246 205.833 754.269 205.187 755.324C203.525 758.275 202.241 761.178 201.065 764.35C194.171 763.706 188.627 760.941 182.487 757.956C180.855 757.168 180.855 757.168 179.191 756.364C123.301 728.969 81.8919 684.856 60.9126 625.805C52.0174 599.54 48.7832 573.268 49.4982 545.625Z" fill="url(#paint3_linear_4014_52984)"/>
<path d="M292.711 605.598C299.551 610.02 306.041 614.666 312.318 619.856C313.119 620.514 313.92 621.171 314.746 621.849C326.853 631.819 338.676 642.087 350.283 652.636C351.164 653.422 352.046 654.209 352.954 655.02C370.055 670.287 386.469 686.253 402.688 702.451C405.958 705.712 409.24 708.96 412.522 712.209C438.459 738.013 460.032 765.583 461.021 803.744C460.404 828.827 450.861 849.807 433.703 867.833C410.393 888.876 382.187 894.81 351.626 893.914C325.58 892.428 300.477 879.921 280.962 863.129C280.216 862.526 279.471 861.922 278.703 861.301C267.72 852.302 257.534 839.647 251.588 826.675C258.638 824.323 265.687 821.971 272.737 819.619C273.422 820.657 274.106 821.696 274.811 822.766C290.954 846.662 313.939 863.178 342.375 869.569C346.978 870.452 351.477 871.1 356.158 871.36C357.189 871.423 358.22 871.485 359.283 871.549C380.222 872.197 400.159 866.42 416.079 852.545C417.511 851.495 417.511 851.495 418.971 850.423C430.819 840.17 436.803 823.823 438.33 808.668C439.434 782.298 426.843 761.287 410.205 742.007C406.044 737.551 401.748 733.238 397.423 728.943C396.222 727.743 395.021 726.542 393.821 725.34C391.328 722.847 388.83 720.357 386.33 717.87C383.149 714.707 379.977 711.536 376.807 708.362C374.337 705.89 371.863 703.421 369.389 700.953C368.218 699.786 367.049 698.617 365.88 697.449C359.947 691.52 353.983 685.701 347.605 680.251C344.031 677.167 340.638 673.889 337.212 670.642C329.518 663.407 321.621 656.462 313.548 649.654C311.429 647.864 309.319 646.064 307.209 644.262C305.828 643.084 304.447 641.907 303.065 640.729C302.43 640.186 301.794 639.643 301.139 639.084C298.402 636.762 295.702 634.64 292.711 632.645C292.311 629.895 292.311 629.895 292.367 626.499C292.384 624.68 292.384 624.68 292.401 622.824C292.431 621.554 292.46 620.283 292.491 618.974C292.514 617.055 292.514 617.055 292.539 615.098C292.58 611.931 292.638 608.765 292.711 605.598Z" fill="url(#paint4_linear_4014_52984)"/>
<path d="M253.938 236.353C253.938 257.785 236.579 275.159 215.165 275.159C193.751 275.159 176.392 257.785 176.392 236.353C176.392 214.921 193.751 197.547 215.165 197.547C236.579 197.547 253.938 214.921 253.938 236.353Z" fill="url(#paint5_linear_4014_52984)"/>
<path d="M447.803 307.352C464.674 307.352 478.351 293.664 478.351 276.778C478.351 265.706 472.47 256.008 463.664 250.643C463.664 250.643 464.252 246.349 464.252 243.409C464.252 240.469 463.976 197.463 453.97 176.114C439.749 147.282 416.175 124.277 385.514 113.662L383.181 112.88C339.591 98.1365 284.831 113.475 253.502 147.189L251.588 149.334C241.544 160.023 231.718 171.085 225.739 184.612C231.971 186.072 236.975 188.437 242.514 191.64L244.538 192.844C246.973 190.658 248.694 188.429 250.606 185.742C255.749 178.234 260.856 171.075 267.496 164.791C291.735 143.65 321.162 128.8 354.101 130.739C376.659 133.423 401.103 142.46 416.102 160.404L418.429 163.445C435.547 184.124 442.856 207.532 442.283 234.19C442.241 236.058 442.209 237.925 442.186 239.793C442.163 242.107 442.134 244.421 442.101 246.735C427.954 249.408 417.254 261.843 417.254 276.778C417.254 284.49 420.107 291.535 424.815 296.914C423.554 299.515 421.488 303.233 419.618 305.434C418.164 307.033 416.732 308.653 415.32 310.29L413.16 312.794C410.761 315.511 408.43 318.234 406.148 321.053C400.85 327.74 395.222 334.045 389.406 340.278C386.956 342.902 384.521 345.525 382.167 348.237C373.317 358.08 373.317 358.08 363.909 367.397L360.857 370.41C363.127 373.267 365.408 376.11 367.733 378.922L369.816 381.361C371.918 383.846 371.918 383.846 373.782 385.698C376.132 385.698 376.132 385.698 378.101 384.012L380.441 381.655L383.037 379.051L385.751 376.29C390.811 371.222 395.8 366.132 400.507 360.732C402.753 358.123 405.012 355.551 407.332 353.005C412.137 347.799 416.823 342.541 421.293 337.043L421.364 336.955C423.659 334.101 425.951 331.249 428.334 328.467L430.105 326.423C431.279 325.062 432.454 323.703 433.63 322.344C436.601 318.978 441.341 308.086 447.803 307.352Z" fill="url(#paint6_linear_4014_52984)"/>
<path d="M103.546 498.588C103.546 520.02 86.1867 537.394 64.773 537.394C43.3592 537.394 26 520.02 26 498.588C26 477.156 43.3592 459.782 64.773 459.782C86.1867 459.782 103.546 477.156 103.546 498.588Z" fill="url(#paint7_linear_4014_52984)"/>
<path d="M285.661 778.461C285.661 799.893 268.302 817.267 246.888 817.267C225.475 817.267 208.115 799.893 208.115 778.461C208.115 757.029 225.475 739.655 246.888 739.655C268.302 739.655 285.661 757.029 285.661 778.461Z" fill="url(#paint8_linear_4014_52984)"/>
<path d="M835.532 251.366C833.183 257.246 830.833 263.125 828.483 269.005C829.269 269.448 830.056 269.892 830.866 270.348C851.276 281.712 851.276 281.712 869.606 296.052C870.998 297.241 870.998 297.241 872.419 298.454C901.635 323.525 919.316 360.372 928.353 397.182C928.551 397.985 928.749 398.787 928.953 399.613C932.609 414.986 933.226 430.853 934.227 446.572C935.275 446.728 936.323 446.884 937.403 447.045C939.466 447.357 939.466 447.357 941.571 447.674C942.934 447.879 944.297 448.084 945.701 448.294C949.353 448.836 949.353 448.836 952.274 449.663C953.228 449.879 953.228 449.879 954.201 450.1C956.297 448.002 955.58 445.003 955.596 442.162C955.266 405.945 947.302 368.681 929.498 336.905C928.332 334.82 927.209 332.715 926.09 330.604C918.199 315.98 908.017 303.398 896.629 291.348C895.681 290.323 894.733 289.299 893.756 288.243C880.442 274.32 855.877 251.366 835.532 251.366Z" fill="url(#paint9_linear_4014_52984)"/>
<path d="M886.055 501.841C880.896 502.572 876.68 504.544 872.102 506.912C870.896 507.528 870.896 507.528 869.666 508.156C867.878 509.072 866.092 509.991 864.308 510.914C861.2 512.518 858.082 514.104 854.965 515.691C801.28 543.179 801.28 543.179 789.71 554.758C789.608 556.595 789.584 558.436 789.595 560.275C789.601 561.941 789.601 561.941 789.606 563.64C789.621 565.392 789.621 565.392 789.636 567.179C789.642 568.352 789.647 569.524 789.652 570.732C789.666 573.639 789.686 576.546 789.71 579.453C797.901 575.194 805.718 570.522 813.502 565.562C838.657 549.559 864.502 533.649 891.929 521.832C890.819 518.448 889.723 515.116 888.331 511.837C887.09 508.526 886.542 505.336 886.055 501.841Z" fill="url(#paint10_linear_4014_52984)"/>
<path d="M949.502 545.351C942.91 545.739 936.319 546.127 929.528 546.527C929.328 548.716 929.128 550.905 928.922 553.16C923.988 605.208 909.685 652.294 873.131 691.167C872.575 691.767 872.019 692.367 871.447 692.985C848.987 717.076 818.507 733.525 788.535 746.436C789.017 747.217 789.499 747.998 789.995 748.802C790.628 749.84 791.261 750.879 791.913 751.949C792.54 752.972 793.167 753.995 793.813 755.049C795.475 758 796.759 760.904 797.935 764.075C804.829 763.432 810.373 760.667 816.514 757.681C818.145 756.893 818.145 756.893 819.809 756.09C875.699 728.695 917.108 684.581 938.087 625.531C946.983 599.265 950.217 572.994 949.502 545.351Z" fill="url(#paint11_linear_4014_52984)"/>
<path d="M706.289 605.324C699.449 609.746 692.959 614.392 686.682 619.582C685.881 620.239 685.08 620.897 684.254 621.574C672.147 631.545 660.324 641.813 648.717 652.361C647.836 653.148 646.954 653.935 646.046 654.745C628.945 670.013 612.531 685.978 596.312 702.176C593.042 705.437 589.76 708.686 586.478 711.935C560.541 737.738 538.968 765.309 537.979 803.469C538.596 828.552 548.139 849.532 565.297 867.558C588.607 888.602 616.813 894.536 647.374 893.64C673.42 892.153 698.523 879.647 718.038 862.854C718.784 862.251 719.529 861.648 720.297 861.026C731.28 852.028 741.466 839.373 747.412 826.4C740.362 824.048 733.313 821.697 726.263 819.345C725.578 820.383 724.894 821.421 724.189 822.491C708.046 846.387 685.061 862.903 656.625 869.294C652.022 870.178 647.523 870.825 642.842 871.086C641.811 871.148 640.78 871.21 639.717 871.274C618.778 871.923 598.841 866.146 582.921 852.271C581.489 851.22 581.489 851.22 580.029 850.149C568.181 839.896 562.197 823.549 560.67 808.394C559.566 782.024 572.157 761.012 588.795 741.733C592.956 737.277 597.252 732.964 601.577 728.669C602.778 727.468 603.979 726.267 605.179 725.066C607.672 722.572 610.17 720.082 612.67 717.595C615.851 714.432 619.023 711.262 622.193 708.088C624.663 705.616 627.137 703.147 629.611 700.679C630.782 699.511 631.951 698.343 633.12 697.174C639.053 691.246 645.017 685.426 651.395 679.977C654.969 676.893 658.362 673.614 661.788 670.368C669.482 663.132 677.379 656.187 685.452 649.38C687.571 647.589 689.681 645.789 691.791 643.987C693.172 642.81 694.553 641.632 695.935 640.455C696.57 639.912 697.206 639.369 697.861 638.81C700.598 636.487 703.298 634.366 706.289 632.37C706.689 629.621 706.689 629.621 706.633 626.224C706.616 624.405 706.616 624.405 706.599 622.549C706.569 621.279 706.54 620.009 706.509 618.7C706.486 616.781 706.486 616.781 706.461 614.823C706.42 611.656 706.362 608.49 706.289 605.324Z" fill="url(#paint12_linear_4014_52984)"/>
<path d="M745.062 236.079C745.062 257.511 762.421 274.885 783.835 274.885C805.249 274.885 822.608 257.511 822.608 236.079C822.608 214.647 805.249 197.273 783.835 197.273C762.421 197.273 745.062 214.647 745.062 236.079Z" fill="url(#paint13_linear_4014_52984)"/>
<path d="M551.197 307.078C534.326 307.078 520.649 293.389 520.649 276.503C520.649 265.431 526.53 255.733 535.336 250.368C535.336 250.368 534.748 246.074 534.748 243.134C534.748 240.195 535.024 197.189 545.03 175.84C559.251 147.007 582.825 124.002 613.486 113.388L615.819 112.605C659.409 97.862 714.169 113.2 745.498 146.914L747.412 149.059C757.456 159.748 767.282 170.81 773.261 184.337C767.029 185.797 762.025 188.163 756.486 191.366L754.462 192.569C752.027 190.384 750.306 188.154 748.394 185.467C743.251 177.96 738.144 170.8 731.504 164.516C707.265 143.376 677.838 128.525 644.899 130.465C622.341 133.148 597.896 142.185 582.898 160.13L580.571 163.171C563.453 183.849 556.144 207.257 556.717 233.916C556.759 235.783 556.791 237.651 556.814 239.519C556.837 241.833 556.866 244.147 556.899 246.461C571.046 249.134 581.746 261.568 581.746 276.503C581.746 284.216 578.893 291.261 574.185 296.64C575.446 299.24 577.512 302.958 579.382 305.159C580.836 306.759 582.268 308.378 583.68 310.015L585.84 312.519C588.239 315.236 590.57 317.959 592.852 320.779C598.15 327.465 603.778 333.771 609.594 340.003C612.044 342.628 614.479 345.251 616.833 347.963C625.683 357.805 625.683 357.805 635.091 367.122L638.143 370.136C635.873 372.992 633.592 375.836 631.267 378.648L629.184 381.087C627.082 383.572 627.082 383.572 625.218 385.423C622.868 385.423 622.868 385.423 620.899 383.737L618.559 381.381L615.963 378.776L613.249 376.016C608.189 370.947 603.2 365.857 598.493 360.457C596.247 357.849 593.988 355.276 591.668 352.731C586.863 347.525 582.177 342.267 577.707 336.769L577.636 336.681C575.341 333.826 573.049 330.974 570.666 328.192L568.895 326.148C567.721 324.788 566.546 323.428 565.37 322.069C562.399 318.703 557.659 307.811 551.197 307.078Z" fill="url(#paint14_linear_4014_52984)"/>
<path d="M895.454 498.313C895.454 519.745 912.813 537.119 934.227 537.119C955.641 537.119 973 519.745 973 498.313C973 476.881 955.641 459.507 934.227 459.507C912.813 459.507 895.454 476.881 895.454 498.313Z" fill="url(#paint15_linear_4014_52984)"/>
<path d="M713.339 778.187C713.339 799.619 730.698 816.993 752.112 816.993C773.525 816.993 790.885 799.619 790.885 778.187C790.885 756.755 773.525 739.381 752.112 739.381C730.698 739.381 713.339 756.755 713.339 778.187Z" fill="url(#paint16_linear_4014_52984)"/>
</g>
<defs>
<linearGradient id="paint0_linear_4014_52984" x1="835.532" y1="500.94" x2="194.016" y2="500.94" gradientUnits="userSpaceOnUse">
<stop stop-color="#03B8BD"/>
<stop offset="1" stop-color="#5548D7"/>
</linearGradient>
<linearGradient id="paint1_linear_4014_52984" x1="835.532" y1="500.94" x2="194.016" y2="500.94" gradientUnits="userSpaceOnUse">
<stop stop-color="#03B8BD"/>
<stop offset="1" stop-color="#5548D7"/>
</linearGradient>
<linearGradient id="paint2_linear_4014_52984" x1="835.532" y1="500.94" x2="194.016" y2="500.94" gradientUnits="userSpaceOnUse">
<stop stop-color="#03B8BD"/>
<stop offset="1" stop-color="#5548D7"/>
</linearGradient>
<linearGradient id="paint3_linear_4014_52984" x1="835.532" y1="500.94" x2="194.016" y2="500.94" gradientUnits="userSpaceOnUse">
<stop stop-color="#03B8BD"/>
<stop offset="1" stop-color="#5548D7"/>
</linearGradient>
<linearGradient id="paint4_linear_4014_52984" x1="835.532" y1="500.94" x2="194.016" y2="500.94" gradientUnits="userSpaceOnUse">
<stop stop-color="#03B8BD"/>
<stop offset="1" stop-color="#5548D7"/>
</linearGradient>
<linearGradient id="paint5_linear_4014_52984" x1="835.532" y1="500.94" x2="194.016" y2="500.94" gradientUnits="userSpaceOnUse">
<stop stop-color="#03B8BD"/>
<stop offset="1" stop-color="#5548D7"/>
</linearGradient>
<linearGradient id="paint6_linear_4014_52984" x1="835.532" y1="500.94" x2="194.016" y2="500.94" gradientUnits="userSpaceOnUse">
<stop stop-color="#03B8BD"/>
<stop offset="1" stop-color="#5548D7"/>
</linearGradient>
<linearGradient id="paint7_linear_4014_52984" x1="835.532" y1="500.94" x2="194.016" y2="500.94" gradientUnits="userSpaceOnUse">
<stop stop-color="#03B8BD"/>
<stop offset="1" stop-color="#5548D7"/>
</linearGradient>
<linearGradient id="paint8_linear_4014_52984" x1="835.532" y1="500.94" x2="194.016" y2="500.94" gradientUnits="userSpaceOnUse">
<stop stop-color="#03B8BD"/>
<stop offset="1" stop-color="#5548D7"/>
</linearGradient>
<linearGradient id="paint9_linear_4014_52984" x1="835.532" y1="500.94" x2="194.016" y2="500.94" gradientUnits="userSpaceOnUse">
<stop stop-color="#03B8BD"/>
<stop offset="1" stop-color="#5548D7"/>
</linearGradient>
<linearGradient id="paint10_linear_4014_52984" x1="835.532" y1="500.94" x2="194.016" y2="500.94" gradientUnits="userSpaceOnUse">
<stop stop-color="#03B8BD"/>
<stop offset="1" stop-color="#5548D7"/>
</linearGradient>
<linearGradient id="paint11_linear_4014_52984" x1="835.532" y1="500.94" x2="194.016" y2="500.94" gradientUnits="userSpaceOnUse">
<stop stop-color="#03B8BD"/>
<stop offset="1" stop-color="#5548D7"/>
</linearGradient>
<linearGradient id="paint12_linear_4014_52984" x1="835.532" y1="500.94" x2="194.016" y2="500.94" gradientUnits="userSpaceOnUse">
<stop stop-color="#03B8BD"/>
<stop offset="1" stop-color="#5548D7"/>
</linearGradient>
<linearGradient id="paint13_linear_4014_52984" x1="835.532" y1="500.94" x2="194.016" y2="500.94" gradientUnits="userSpaceOnUse">
<stop stop-color="#03B8BD"/>
<stop offset="1" stop-color="#5548D7"/>
</linearGradient>
<linearGradient id="paint14_linear_4014_52984" x1="835.532" y1="500.94" x2="194.016" y2="500.94" gradientUnits="userSpaceOnUse">
<stop stop-color="#03B8BD"/>
<stop offset="1" stop-color="#5548D7"/>
</linearGradient>
<linearGradient id="paint15_linear_4014_52984" x1="835.532" y1="500.94" x2="194.016" y2="500.94" gradientUnits="userSpaceOnUse">
<stop stop-color="#03B8BD"/>
<stop offset="1" stop-color="#5548D7"/>
</linearGradient>
<linearGradient id="paint16_linear_4014_52984" x1="835.532" y1="500.94" x2="194.016" y2="500.94" gradientUnits="userSpaceOnUse">
<stop stop-color="#03B8BD"/>
<stop offset="1" stop-color="#5548D7"/>
</linearGradient>
<clipPath id="clip0_4014_52984">
<rect width="1000" height="1000" fill="white"/>
</clipPath>
</defs>
</svg>
